<svg width="29" height="30" viewBox="0 0 29 30" fill="none" xmlns="http://www.w3.org/2000/svg"
    id="svg1346126690_1181">
    <path fill-rule="evenodd" clip-rule="evenodd"
        d="M2.27943 0.793945C1.02054 0.793945 0 1.81448 0 3.07338V3.2615C0 3.40503 0.0774726 3.53738 0.202621 3.60765L27.2954 18.82C27.5168 18.9443 27.7966 18.8318 27.8614 18.5863C28.1672 17.4286 28.3301 16.2128 28.3301 14.959C28.3301 7.13585 21.9882 0.793945 14.165 0.793945H2.27943ZM27.0993 20.7428C27.1817 20.5589 27.1072 20.344 26.9315 20.2453L0.591339 5.45549C0.326714 5.30691 0 5.49816 0 5.80164V15.0259C0 15.1694 0.0774722 15.3018 0.202621 15.3721L21.085 27.0973C21.2076 27.1662 21.3578 27.1654 21.4782 27.0927C23.941 25.6051 25.9142 23.389 27.0993 20.7428ZM0.202621 22.7068C0.0774726 22.6365 0 22.5042 0 22.3606V17.5661C0 17.2626 0.326713 17.0713 0.591338 17.2199L19.0523 27.5856C19.3391 27.7467 19.3152 28.1628 19.0061 28.2752C17.4956 28.8245 15.8653 29.124 14.165 29.124H11.7354C11.6673 29.124 11.6004 29.1065 11.541 29.0732L0.202621 22.7068ZM7.21144 29.124C7.62012 29.124 7.76214 28.581 7.4058 28.3809L0.591339 24.5546C0.326714 24.4061 0 24.5973 0 24.9008V25.9762C0 27.7147 1.40931 29.124 3.14779 29.124H7.21144Z"
        fill="#ffffff90"></path>
</svg>