<svg xmlns="http://www.w3.org/2000/svg" xmlns:xlink="http://www.w3.org/1999/xlink"
    style="width: 100%; height: 100%" viewBox="0 0 163 30" preserveAspectRatio="none" width="100%"
    height="100%">
    <use href="#svg630345153_9459"></use>
    <svg width="163" height="30" viewBox="0 0 163 30" fill="none" xmlns="http://www.w3.org/2000/svg"
        id="svg630345153_9459">
        <mask id="svg630345153_9459_mask0_16_192" style="mask-type:alpha" maskUnits="userSpaceOnUse"
            x="1" y="6" width="161" height="18">
            <path
                d="M1.80451 23V20.2497H3.98576V9.15384H1.80451V6.40358H8.63275C10.8614 6.40358 12.5527 6.9726 13.7065 8.11064C14.8762 9.23287 15.461 10.9083 15.461 13.137V16.2666C15.461 18.4952 14.8762 20.1786 13.7065 21.3166C12.5527 22.4389 10.8614 23 8.63275 23H1.80451ZM7.11536 20.1549H8.68017C9.94466 20.1549 10.8693 19.823 11.4541 19.1591C12.039 18.4952 12.3314 17.5627 12.3314 16.3614V13.0421C12.3314 11.8251 12.039 10.8925 11.4541 10.2445C10.8693 9.58061 9.94466 9.24868 8.68017 9.24868H7.11536V20.1549ZM18.1642 23V11.2402H21.1516V23H18.1642ZM19.6579 9.86512C19.1205 9.86512 18.6621 9.69125 18.2827 9.34351C17.9192 8.99578 17.7374 8.5374 17.7374 7.96838C17.7374 7.39936 17.9192 6.94099 18.2827 6.59325C18.6621 6.24552 19.1205 6.07165 19.6579 6.07165C20.2111 6.07165 20.6695 6.24552 21.033 6.59325C21.3965 6.94099 21.5783 7.39936 21.5783 7.96838C21.5783 8.5374 21.3965 8.99578 21.033 9.34351C20.6695 9.69125 20.2111 9.86512 19.6579 9.86512ZM26.4061 23V13.706H23.4187V11.2402H26.4061V9.05901C26.4061 8.25289 26.6432 7.61275 27.1174 7.13856C27.6074 6.64857 28.2396 6.40358 29.0141 6.40358H32.0963V8.86933H30.0573C29.6147 8.86933 29.3934 9.10642 29.3934 9.58061V11.2402H31.7644V13.706H29.3934V23H26.4061ZM34.1353 23V13.706H31.7644V11.2402H34.1353V9.05901C34.1353 8.25289 34.3724 7.61275 34.8465 7.13856C35.3365 6.64857 35.9688 6.40358 36.7433 6.40358H39.8255V8.86933H37.7865C37.3439 8.86933 37.1226 9.10642 37.1226 9.58061V11.2402H40.2048V13.706H37.1226V23H34.1353ZM47.0027 23.1897C46.0859 23.1897 45.2798 22.9842 44.5843 22.5732C43.9047 22.1465 43.3752 21.5616 42.9958 20.8187C42.6165 20.0759 42.4268 19.2223 42.4268 18.2582V11.2402H45.4142V18.0211C45.4142 18.9062 45.6275 19.5701 46.0543 20.0126C46.4969 20.4552 47.1212 20.6765 47.9273 20.6765C48.8441 20.6765 49.5554 20.3762 50.0612 19.7755C50.5669 19.1591 50.8198 18.3056 50.8198 17.215V11.2402H53.8072V23H50.8673V21.4589H50.4405C50.2508 21.854 49.8952 22.2413 49.3736 22.6206C48.852 23 48.0617 23.1897 47.0027 23.1897ZM62.0156 23.3319C60.4824 23.3319 59.2258 23 58.2458 22.3361C57.2658 21.6723 56.6731 20.7239 56.4676 19.491L59.2179 18.7798C59.3285 19.333 59.5103 19.7676 59.7632 20.0838C60.0319 20.3999 60.3559 20.6291 60.7353 20.7713C61.1304 20.8978 61.5572 20.961 62.0156 20.961C62.711 20.961 63.2247 20.8425 63.5567 20.6054C63.8886 20.3525 64.0546 20.0442 64.0546 19.6807C64.0546 19.3172 63.8965 19.0406 63.5804 18.8509C63.2642 18.6454 62.7585 18.4794 62.063 18.353L61.3991 18.2344C60.5772 18.0764 59.8264 17.863 59.1468 17.5943C58.4671 17.3098 57.9218 16.9225 57.5108 16.4326C57.0999 15.9426 56.8944 15.3103 56.8944 14.5358C56.8944 13.3662 57.3212 12.4731 58.1747 11.8567C59.0282 11.2244 60.1504 10.9083 61.5414 10.9083C62.8533 10.9083 63.9439 11.2007 64.8132 11.7856C65.6826 12.3704 66.2516 13.137 66.5203 14.0853L63.7463 14.9389C63.6199 14.3382 63.3591 13.9115 62.9639 13.6586C62.5846 13.4057 62.1104 13.2792 61.5414 13.2792C60.9724 13.2792 60.5377 13.382 60.2374 13.5875C59.9371 13.7771 59.7869 14.0458 59.7869 14.3936C59.7869 14.7729 59.945 15.0574 60.2611 15.2471C60.5772 15.421 61.004 15.5553 61.5414 15.6501L62.2052 15.7687C63.0904 15.9268 63.8886 16.1401 64.5999 16.4088C65.3269 16.6617 65.896 17.0332 66.3069 17.5232C66.7337 17.9974 66.9471 18.6454 66.9471 19.4673C66.9471 20.7002 66.4966 21.6565 65.5956 22.3361C64.7105 23 63.5171 23.3319 62.0156 23.3319ZM69.5649 23V11.2402H72.5523V23H69.5649ZM71.0586 9.86512C70.5212 9.86512 70.0628 9.69125 69.6834 9.34351C69.3199 8.99578 69.1381 8.5374 69.1381 7.96838C69.1381 7.39936 69.3199 6.94099 69.6834 6.59325C70.0628 6.24552 70.5212 6.07165 71.0586 6.07165C71.6118 6.07165 72.0702 6.24552 72.4337 6.59325C72.7972 6.94099 72.979 7.39936 72.979 7.96838C72.979 8.5374 72.7972 8.99578 72.4337 9.34351C72.0702 9.69125 71.6118 9.86512 71.0586 9.86512ZM81.458 23.3319C80.2883 23.3319 79.2372 23.0948 78.3047 22.6206C77.3721 22.1465 76.6371 21.4589 76.0997 20.5579C75.5623 19.657 75.2936 18.5743 75.2936 17.3098V16.9304C75.2936 15.666 75.5623 14.5832 76.0997 13.6823C76.6371 12.7813 77.3721 12.0938 78.3047 11.6196C79.2372 11.1454 80.2883 10.9083 81.458 10.9083C82.6276 10.9083 83.6787 11.1454 84.6113 11.6196C85.5439 12.0938 86.2788 12.7813 86.8163 13.6823C87.3537 14.5832 87.6224 15.666 87.6224 16.9304V17.3098C87.6224 18.5743 87.3537 19.657 86.8163 20.5579C86.2788 21.4589 85.5439 22.1465 84.6113 22.6206C83.6787 23.0948 82.6276 23.3319 81.458 23.3319ZM81.458 20.6765C82.3747 20.6765 83.1334 20.3841 83.7341 19.7992C84.3347 19.1986 84.635 18.3451 84.635 17.2387V17.0016C84.635 15.8951 84.3347 15.0495 83.7341 14.4647C83.1492 13.8641 82.3905 13.5637 81.458 13.5637C80.5412 13.5637 79.7825 13.8641 79.1819 14.4647C78.5813 15.0495 78.281 15.8951 78.281 17.0016V17.2387C78.281 18.3451 78.5813 19.1986 79.1819 19.7992C79.7825 20.3841 80.5412 20.6765 81.458 20.6765ZM90.3799 23V11.2402H93.3198V12.7813H93.7466C93.9362 12.3704 94.2919 11.9831 94.8135 11.6196C95.3351 11.2402 96.1254 11.0506 97.1844 11.0506C98.1011 11.0506 98.8993 11.264 99.579 11.6907C100.274 12.1017 100.812 12.6786 101.191 13.4215C101.571 14.1486 101.76 15.0021 101.76 15.9821V23H98.7729V16.2192C98.7729 15.334 98.5516 14.6702 98.109 14.2276C97.6823 13.785 97.0658 13.5637 96.2597 13.5637C95.343 13.5637 94.6317 13.872 94.1259 14.4884C93.6201 15.089 93.3672 15.9347 93.3672 17.0253V23H90.3799Z"
                fill="#ffffffaf"></path>
            <path
                d="M109.802 23V6.40358H112.932V20.1549H120.519V23H109.802ZM126.399 23.3319C125.561 23.3319 124.81 23.1897 124.146 22.9051C123.482 22.6048 122.953 22.1781 122.558 21.6249C122.178 21.0558 121.989 20.3683 121.989 19.5622C121.989 18.756 122.178 18.0843 122.558 17.5469C122.953 16.9937 123.49 16.5827 124.17 16.314C124.865 16.0295 125.656 15.8872 126.541 15.8872H129.765V15.2234C129.765 14.6702 129.592 14.2197 129.244 13.872C128.896 13.5084 128.343 13.3267 127.584 13.3267C126.841 13.3267 126.288 13.5005 125.924 13.8483C125.561 14.1802 125.324 14.6148 125.213 15.1523L122.463 14.2276C122.653 13.627 122.953 13.0817 123.364 12.5917C123.791 12.0859 124.352 11.6828 125.047 11.3825C125.759 11.0664 126.62 10.9083 127.632 10.9083C129.181 10.9083 130.406 11.2956 131.306 12.0701C132.207 12.8446 132.658 13.9668 132.658 15.4368V19.823C132.658 20.2971 132.879 20.5342 133.322 20.5342H134.27V23H132.279C131.694 23 131.212 22.8577 130.832 22.5732C130.453 22.2887 130.263 21.9094 130.263 21.4352V21.4115H129.813C129.75 21.6011 129.607 21.854 129.386 22.1702C129.165 22.4705 128.817 22.7392 128.343 22.9763C127.869 23.2134 127.221 23.3319 126.399 23.3319ZM126.92 20.9136C127.758 20.9136 128.438 20.6844 128.959 20.226C129.497 19.7518 129.765 19.1275 129.765 18.353V18.1159H126.754C126.201 18.1159 125.766 18.2344 125.45 18.4715C125.134 18.7086 124.976 19.0406 124.976 19.4673C124.976 19.8941 125.142 20.2418 125.474 20.5105C125.806 20.7792 126.288 20.9136 126.92 20.9136ZM143.52 23.3319C142.461 23.3319 141.647 23.1501 141.078 22.7866C140.509 22.4231 140.09 22.02 139.821 21.5774H139.394V23H136.454V6.40358H139.442V12.5917H139.868C140.042 12.3072 140.271 12.0385 140.556 11.7856C140.856 11.5327 141.244 11.3272 141.718 11.1691C142.208 10.9953 142.808 10.9083 143.52 10.9083C144.468 10.9083 145.345 11.1454 146.151 11.6196C146.957 12.078 147.606 12.7576 148.096 13.6586C148.586 14.5595 148.83 15.6501 148.83 16.9304V17.3098C148.83 18.5901 148.586 19.6807 148.096 20.5817C147.606 21.4826 146.957 22.1702 146.151 22.6443C145.345 23.1027 144.468 23.3319 143.52 23.3319ZM142.619 20.7239C143.535 20.7239 144.302 20.4315 144.918 19.8467C145.535 19.246 145.843 18.3767 145.843 17.2387V17.0016C145.843 15.8635 145.535 15.0021 144.918 14.4173C144.318 13.8166 143.551 13.5163 142.619 13.5163C141.702 13.5163 140.935 13.8166 140.319 14.4173C139.702 15.0021 139.394 15.8635 139.394 17.0016V17.2387C139.394 18.3767 139.702 19.246 140.319 19.8467C140.935 20.4315 141.702 20.7239 142.619 20.7239ZM156.458 23.3319C154.924 23.3319 153.668 23 152.688 22.3361C151.708 21.6723 151.115 20.7239 150.91 19.491L153.66 18.7798C153.771 19.333 153.952 19.7676 154.205 20.0838C154.474 20.3999 154.798 20.6291 155.177 20.7713C155.572 20.8978 155.999 20.961 156.458 20.961C157.153 20.961 157.667 20.8425 157.999 20.6054C158.331 20.3525 158.497 20.0442 158.497 19.6807C158.497 19.3172 158.339 19.0406 158.022 18.8509C157.706 18.6454 157.201 18.4794 156.505 18.353L155.841 18.2344C155.019 18.0764 154.268 17.863 153.589 17.5943C152.909 17.3098 152.364 16.9225 151.953 16.4326C151.542 15.9426 151.336 15.3103 151.336 14.5358C151.336 13.3662 151.763 12.4731 152.617 11.8567C153.47 11.2244 154.593 10.9083 155.983 10.9083C157.295 10.9083 158.386 11.2007 159.255 11.7856C160.125 12.3704 160.694 13.137 160.962 14.0853L158.188 14.9389C158.062 14.3382 157.801 13.9115 157.406 13.6586C157.027 13.4057 156.552 13.2792 155.983 13.2792C155.414 13.2792 154.98 13.382 154.679 13.5875C154.379 13.7771 154.229 14.0458 154.229 14.3936C154.229 14.7729 154.387 15.0574 154.703 15.2471C155.019 15.421 155.446 15.5553 155.983 15.6501L156.647 15.7687C157.532 15.9268 158.331 16.1401 159.042 16.4088C159.769 16.6617 160.338 17.0332 160.749 17.5232C161.176 17.9974 161.389 18.6454 161.389 19.4673C161.389 20.7002 160.939 21.6565 160.038 22.3361C159.153 23 157.959 23.3319 156.458 23.3319Z"
                fill="#ffffffaf"></path>
        </mask>
        <g mask="url(#svg630345153_9459_mask0_16_192)">
            <rect x="-3.05078" y="2.38187" width="171.098" height="27.7886" fill="#ffffffaf"></rect>
        </g>
    </svg>
</svg>